<?xml version="1.0" standalone="no"?>
<!DOCTYPE svg PUBLIC "-//W3C//DTD SVG 20010904//EN"
 "http://www.w3.org/TR/2001/REC-SVG-20010904/DTD/svg10.dtd">
<svg version="1.0" xmlns="http://www.w3.org/2000/svg"
 width="600.000000pt" height="600.000000pt" viewBox="0 0 600.000000 600.000000"
 preserveAspectRatio="xMidYMid meet">
<metadata>
Created by potrace 1.11, written by Peter Selinger 2001-2013
</metadata>
<g transform="translate(0.000000,600.000000) scale(0.100000,-0.100000)"
fill="#000000" stroke="none">
<path d="M2094 4742 c2 -4 -10 -8 -27 -8 -67 -2 -127 -9 -127 -16 0 -5 -14 -8
-31 -8 -18 0 -28 -4 -24 -10 4 -7 -3 -9 -19 -6 -14 3 -26 0 -26 -5 0 -5 -3 -8
-7 -7 -14 2 -67 -14 -82 -26 -12 -9 -13 -8 -6 4 5 8 -4 5 -19 -8 -16 -12 -32
-19 -37 -16 -5 3 -9 0 -9 -6 0 -6 -5 -8 -10 -5 -6 3 -13 -1 -16 -9 -3 -9 -10
-13 -15 -11 -7 5 -54 -19 -69 -35 -3 -3 -18 -12 -35 -20 -16 -8 -40 -25 -53
-38 -13 -12 -28 -20 -33 -17 -5 4 -9 -2 -9 -11 0 -10 -2 -15 -5 -12 -6 5 -40
-22 -113 -89 -19 -18 -39 -33 -43 -33 -5 0 -8 -3 -6 -8 1 -4 -11 -21 -26 -37
-15 -17 -37 -45 -48 -62 -11 -18 -24 -33 -28 -33 -7 0 -26 -34 -30 -52 0 -5
-10 -17 -21 -28 -12 -12 -18 -25 -15 -30 4 -6 2 -10 -3 -10 -8 0 -71 -116 -76
-142 -2 -7 -8 -24 -13 -38 -6 -14 -9 -28 -6 -32 2 -5 -1 -8 -7 -8 -6 0 -9 -4
-5 -9 3 -5 0 -13 -6 -16 -5 -4 -8 -13 -5 -20 2 -7 2 -16 -2 -19 -6 -7 -10 -22
-17 -63 -2 -12 -6 -27 -10 -32 -3 -6 0 -11 7 -11 10 0 10 -2 1 -8 -7 -5 -14
-31 -16 -58 -2 -27 -7 -56 -12 -64 -5 -9 -4 -15 3 -18 7 -2 9 -9 5 -15 -10
-16 -11 -87 -2 -92 4 -3 3 -21 -1 -40 -5 -22 -4 -35 2 -35 7 0 6 -5 -1 -13 -7
-10 -8 -16 0 -24 6 -6 11 -30 11 -52 0 -23 3 -41 7 -41 4 0 7 -10 8 -22 0 -26
25 -121 33 -128 3 -3 11 -27 18 -55 7 -27 17 -52 21 -55 4 -3 13 -21 21 -40 8
-19 16 -37 19 -40 4 -3 13 -18 21 -35 8 -16 21 -38 29 -47 8 -10 11 -18 7 -18
-4 0 5 -11 19 -25 23 -24 29 -37 26 -57 0 -4 7 -4 16 -1 10 4 14 2 10 -4 -4
-6 5 -21 19 -32 15 -12 24 -21 20 -21 -8 0 6 -17 51 -65 17 -18 29 -36 26 -39
-4 -3 -1 -6 5 -6 13 0 62 -47 62 -60 0 -5 9 -12 20 -15 11 -3 20 -14 20 -22 0
-9 2 -14 5 -11 8 8 90 -75 86 -87 -1 -5 1 -7 4 -3 4 4 20 -5 35 -20 16 -15 40
-36 53 -47 14 -11 23 -23 20 -27 -2 -5 1 -8 8 -8 6 0 25 -14 41 -30 15 -17 30
-30 32 -30 2 0 20 -15 39 -32 85 -79 119 -108 128 -108 5 0 9 -4 9 -9 0 -5 18
-22 40 -38 22 -15 40 -34 40 -41 0 -7 5 -10 10 -7 6 3 10 2 10 -4 0 -5 9 -13
20 -16 11 -4 18 -11 15 -16 -4 -5 0 -9 7 -9 7 0 27 -13 44 -28 68 -59 84 -72
89 -72 3 0 13 -8 23 -17 11 -10 32 -27 47 -38 16 -11 40 -30 53 -43 14 -12 29
-22 34 -22 5 0 6 -5 2 -12 -4 -6 -3 -8 3 -5 5 4 20 -3 31 -14 12 -11 22 -17
22 -14 0 3 10 -3 22 -15 12 -11 26 -20 30 -20 5 0 7 -4 4 -8 -3 -5 10 -15 29
-22 19 -7 37 -20 40 -27 2 -8 9 -11 15 -8 5 3 10 3 10 -2 0 -4 24 -24 54 -43
30 -19 53 -37 51 -40 -2 -4 2 -7 9 -7 12 0 66 -34 93 -60 7 -6 22 -14 32 -18
11 -3 22 -12 25 -20 3 -8 12 -15 21 -15 8 0 15 -5 15 -12 0 -6 3 -9 6 -5 6 6
17 -1 53 -34 17 -15 61 -32 86 -33 6 -1 13 -5 17 -11 5 -6 8 -6 8 2 0 6 9 10
20 8 11 -2 20 0 20 6 0 5 7 9 15 9 8 0 15 4 15 9 0 5 14 14 30 20 17 5 30 14
30 18 0 4 25 24 55 43 30 19 55 38 55 43 0 4 6 7 13 7 6 0 25 11 41 25 16 13
37 27 47 30 11 4 19 11 19 16 0 5 7 9 15 9 7 0 18 7 23 16 5 9 12 15 16 14 13
-2 145 97 138 105 -4 4 0 6 8 3 8 -2 27 8 42 24 15 16 28 25 28 21 0 -4 7 1
15 11 8 11 15 16 15 11 0 -4 13 6 30 23 17 18 30 29 30 27 0 -6 17 7 61 47 16
15 29 24 29 20 0 -4 11 6 25 22 14 16 25 25 25 21 0 -4 13 5 29 21 17 16 47
43 67 59 20 17 48 40 62 53 14 12 29 22 33 22 5 0 9 7 9 15 0 8 6 14 13 12 6
-1 11 4 10 11 -2 6 2 12 7 12 19 0 25 4 68 47 23 23 42 41 42 38 0 -4 73 62
166 151 30 29 54 50 54 48 0 -2 29 26 65 62 36 36 65 64 65 61 0 -3 15 9 33
26 18 18 32 34 32 37 -1 3 12 17 27 32 15 15 28 24 28 20 0 -3 11 9 25 28 14
19 31 37 37 42 7 4 9 8 5 8 -4 0 3 11 17 24 15 13 26 27 26 32 0 5 9 16 19 24
11 7 18 17 15 22 -3 4 2 11 10 14 9 3 13 10 10 15 -3 5 -1 9 4 9 4 0 14 16 22
35 8 19 16 35 19 35 4 0 12 9 19 21 11 17 11 20 0 14 -7 -3 -6 -1 3 7 9 7 17
18 18 23 7 38 15 55 24 55 6 0 8 3 4 6 -3 3 3 26 14 51 10 25 17 49 13 54 -3
5 -1 9 3 9 8 0 20 43 39 140 8 42 15 93 16 128 1 17 6 32 12 32 6 0 5 4 -3 9
-10 6 -10 13 -3 28 6 11 7 25 2 33 -5 9 -4 20 3 29 8 10 8 12 1 8 -8 -4 -12
10 -13 46 -1 28 -4 63 -6 77 -2 14 -6 40 -9 57 -3 18 -9 48 -15 67 -5 19 -6
37 -3 40 3 3 0 6 -7 6 -8 0 -10 7 -6 20 4 11 2 20 -4 20 -6 0 -11 9 -11 20 0
11 -5 20 -11 20 -5 0 -7 5 -4 10 4 6 1 17 -5 25 -7 8 -10 15 -6 15 7 0 -55
127 -90 181 -12 20 -20 40 -17 43 4 3 -1 6 -10 6 -10 0 -17 6 -17 13 0 8 -9
22 -20 32 -11 10 -20 22 -20 26 0 7 -46 61 -111 130 -20 21 -39 35 -43 32 -3
-4 -6 1 -6 10 0 9 -3 16 -7 15 -5 -1 -21 10 -37 25 -16 14 -34 24 -40 20 -6
-3 -8 -3 -4 2 8 9 -71 72 -84 67 -5 -1 -8 2 -8 6 0 5 -18 17 -40 28 -22 10
-40 22 -40 27 0 4 -9 7 -20 7 -11 0 -20 5 -20 11 0 5 -4 7 -10 4 -6 -3 -10 -1
-10 4 0 6 -3 10 -7 9 -5 -1 -21 5 -38 12 -16 7 -36 14 -43 16 -8 1 -21 6 -30
10 -20 8 -40 14 -64 16 -10 1 -18 7 -18 12 0 5 -3 7 -6 4 -3 -4 -20 -2 -37 4
-18 5 -36 10 -42 11 -5 2 -16 6 -22 10 -8 5 -13 3 -13 -3 0 -6 -5 -8 -12 -3
-7 4 -21 6 -30 5 -10 -2 -18 1 -18 7 0 7 -8 7 -25 1 -13 -5 -27 -5 -30 -1 -2
5 -53 7 -112 6 -116 -4 -145 -8 -206 -33 -16 -7 -35 -12 -43 -12 -8 0 -14 -4
-14 -10 0 -5 -3 -9 -7 -8 -16 4 -53 -14 -47 -23 3 -5 2 -9 -3 -8 -19 5 -62
-14 -56 -24 4 -6 0 -8 -10 -4 -9 3 -17 3 -19 -1 -3 -7 -78 -58 -90 -61 -4 -1
-18 -12 -32 -24 -13 -13 -37 -29 -53 -37 -15 -8 -34 -23 -41 -32 -7 -10 -20
-18 -28 -18 -8 0 -14 -4 -14 -8 0 -5 -15 -17 -34 -27 -19 -11 -33 -22 -30 -26
12 -19 -29 -15 -58 7 -18 13 -41 27 -50 30 -10 4 -18 10 -18 15 0 5 -6 9 -14
9 -8 0 -17 7 -20 16 -4 9 -9 14 -13 11 -3 -4 -13 1 -22 11 -9 9 -28 23 -43 31
-16 8 -28 18 -28 23 0 4 -7 8 -15 8 -8 0 -15 5 -15 10 0 6 -7 10 -15 10 -8 0
-15 5 -15 10 0 6 -7 10 -15 10 -8 0 -15 5 -15 10 0 6 -7 10 -15 10 -8 0 -15 5
-15 11 0 5 -4 8 -9 5 -5 -3 -14 1 -21 9 -7 8 -21 15 -30 15 -10 0 -20 4 -22 9
-1 5 -10 11 -18 13 -8 2 -21 9 -29 16 -7 7 -20 11 -27 8 -8 -3 -14 -1 -14 4 0
6 -9 10 -19 10 -11 0 -23 5 -26 10 -4 6 -11 8 -16 5 -5 -4 -9 -2 -9 2 0 5 -17
10 -37 11 -121 9 -193 10 -198 1 -4 -5 -12 -6 -18 -2 -17 11 -49 14 -43 5z"/>
</g>
</svg>
